#!OML:ASF E:\motion texture\Top Level 1\Subject 1\Session 1\male.ASF
:FULLY-SPECIFIED
:DEGREES
389
root -22.0378 18.4538 3.04726 807.638 -77.9593 -808.88
lowerback 6.59304 1.99407 10.2713
upperback -0.885181 3.54007 4.2557
thorax -4.29259 1.48861 -1.63448
lowerneck -19.1491 -6.00864 -6.99441
upperneck 13.1945 -7.49452 6.8077
head 7.72849 -3.29643 2.45495
rclavicle -7.66719e-015 -1.17283e-014
rhumerus -5.7227 12.0424 -87.7687
rradius 80.3474
rwrist -1.27184
rhand -12.1689 -6.8695
rfingers 7.12502
rthumb 13.8942 -36.3853
lclavicle -7.66719e-015 -1.17283e-014
lhumerus -50.8747 -4.8373 82.3899
lradius 53.1925
lwrist -2.5479
lhand -8.62121 1.44488
lfingers 7.12502
lthumb 17.311 30.6939
rfemur 2.0547 3.51781 38.7261
rtibia 20.0304
rfoot 715.103 -8.32653
rtoes 4.99056
lfemur -84.2075 5.34914 -10.8571
ltibia 65.8108
lfoot 359.768 187.857
ltoes -2.72527
390
root -22.1679 18.4542 3.04959 808.116 -78.0134 -809.283
lowerback 6.5221 2.02419 10.2262
upperback -0.877615 3.5658 4.20651
thorax -4.241 1.50546 -1.66048
lowerneck -19.1445 -6.02334 -7.01017
upperneck 13.1618 -7.52248 6.88012
head 7.72277 -3.30422 2.47794
rclavicle -2.94442e-014 -2.64384e-014
rhumerus -5.97426 12.0378 -87.8136
rradius 80.2881
rwrist -1.26388
rhand -12.0966 -6.89952
rfingers 7.12502
rthumb 13.9639 -36.4106
lclavicle -2.94442e-014 -2.64384e-014
lhumerus -50.8019 -4.96599 82.4679
lradius 53.181
lwrist -2.51511
lhand -8.70652 1.44526
lfingers 7.12502
lthumb 17.2289 30.7015
rfemur 2.42646 3.7808 38.7289
rtibia 20.0533
rfoot 715.056 -8.31349
rtoes 4.37683
lfemur -84.2743 5.44148 -11.002
ltibia 67.3288
lfoot 360.326 188.719
ltoes -2.73036
391
root -22.298 18.4527 3.05258 808.811 -78.0605 -809.861
lowerback 6.42111 2.06245 10.1983
upperback -0.884676 3.60076 4.15221
thorax -4.18566 1.52618 -1.7007
lowerneck -19.1338 -6.02919 -7.02458
upperneck 13.137 -7.53926 6.95049
head 7.71768 -3.30692 2.50162
rclavicle -1.15854e-015 -2.08724e-014
rhumerus -6.24332 12.0666 -87.8662
rradius 80.1967
rwrist -1.26492
rhand -12.0388 -6.94286
rfingers 7.12502
rthumb 14.0196 -36.4501
lclavicle -1.15854e-015 -2.08724e-014
lhumerus -50.7197 -5.10047 82.5521
lradius 53.1724
lwrist -2.47254
lhand -8.79555 1.44241
lfingers 7.12502
lthumb 17.1432 30.7061
rfemur 2.7333 4.04773 38.7306
rtibia 20.1228
rfoot 714.991 -8.26743
rtoes 3.77917
lfemur -84.221 5.59292 -11.1248
ltibia 68.9611
lfoot 360.989 189.637
ltoes -2.85345
392
root -22.428 18.449 3.05614 809.703 -78.094 -810.599
lowerback 6.28735 2.10632 10.19
upperback -0.903418 3.64101 4.09643
thorax -4.12232 1.549 -1.75221
lowerneck -19.1267 -6.02608 -7.03081
upperneck 13.1235 -7.54395 7.00737
head 7.71518 -3.30455 2.52104
rclavicle -3.73731e-015 -1.03368e-014
rhumerus -6.52624 12.127 -87.9291
rradius 80.0732
rwrist -1.26644
rhand -11.9966 -6.99087
rfingers 7.12502
rthumb 14.0603 -36.4953
lclavicle -3.73731e-015 -1.03368e-014
lhumerus -50.6267 -5.22336 82.6363
lradius 53.1722
lwrist -2.42492
lhand -8.87219 1.45211
lfingers 7.12502
lthumb 17.0695 30.7222
rfemur 2.97684 4.30005 38.7317
rtibia 20.2368
rfoot 714.904 -8.18162
rtoes 3.17843
lfemur -84.0493 5.8036 -11.2193
ltibia 70.7058
lfoot 361.744 190.588
ltoes -3.13817
393
root -22.5582 18.4431 3.06023 810.762 -78.1066 -811.463
lowerback 6.11844 2.15385 10.2047
upperback -0.932024 3.68364 4.04304
thorax -4.04803 1.57257 -1.81223
lowerneck -19.1266 -6.01431 -7.03064
upperneck 13.1194 -7.53636 7.05207
head 7.71525 -3.2969 2.5369
rclavicle -2.58024e-014 5.70512e-014
rhumerus -6.82065 12.2207 -87.9984
rradius 79.9221
rwrist -1.26626
rhand -11.9584 -7.04934
rfingers 7.12502
rthumb 14.0971 -36.5512
lclavicle -2.58024e-014 5.70512e-014
lhumerus -50.5253 -5.32608 82.7204
lradius 53.184
lwrist -2.3818
lhand -8.94488 1.45119
lfingers 7.12502
lthumb 16.9995 30.7273
rfemur 3.16647 4.53041 38.7364
rtibia 20.3786
rfoot 714.794 -8.05875
rtoes 2.61342
lfemur -83.7566 6.06663 -11.2773
ltibia 72.5713
lfoot 362.597 191.567
ltoes -3.50463
394
root -22.6888 18.4349 3.06483 811.933 -78.1025 -812.404
lowerback 5.91783 2.20115 10.2352
upperback -0.971939 3.72349 3.99233
thorax -3.96718 1.5943 -1.87626
lowerneck -19.1194 -5.99235 -7.01992
upperneck 13.1144 -7.51486 7.07943
head 7.71163 -3.2839 2.54732
rclavicle -1.13292e-015 -4.4329e-014
rhumerus -7.12961 12.3442 -88.076
rradius 79.7445
rwrist -1.26284
rhand -11.9206 -7.10818
rfingers 7.12502
rthumb 14.1335 -36.6075
lclavicle -1.13292e-015 -4.4329e-014
lhumerus -50.42 -5.40027 82.8033
lradius 53.21
lwrist -2.34135
lhand -8.99142 1.46061
lfingers 7.12502
lthumb 16.9547 30.7406
rfemur 3.30921 4.72827 38.7358
rtibia 20.5409
rfoot 714.657 -7.89866
rtoes 2.08445
lfemur -83.3521 6.37285 -11.3094
ltibia 74.5339
lfoot 363.521 192.595
ltoes -3.91762
395
root -22.8198 18.4243 3.06962 813.216 -78.0789 -813.43
lowerback 5.69437 2.2506 10.2781
upperback -1.01796 3.76415 3.94603
thorax -3.8792 1.61621 -1.94126
lowerneck -19.0953 -5.96016 -7.02085
upperneck 13.087 -7.47955 7.12608
head 7.69804 -3.26373 2.56823
rclavicle 2.55974e-014 -4.76089e-014
rhumerus -7.44883 12.4875 -88.1605
rradius 79.544
rwrist -1.24994
rhand -11.8756 -7.15847
rfingers 7.12502
rthumb 14.1768 -36.6547
lclavicle 2.55974e-014 -4.76089e-014
lhumerus -50.3036 -5.44918 82.8879
lradius 53.249
lwrist -2.30247
lhand -9.03664 1.46401
lfingers 7.12502
lthumb 16.9112 30.7477
rfemur 3.43406 4.89986 38.7352
rtibia 20.6906
rfoot 714.506 -7.70691
rtoes 1.58471
lfemur -82.8374 6.72785 -11.3157
ltibia 76.5755
lfoot 364.494 193.715
ltoes -4.29585
396
root -22.9518 18.4114 3.07471 814.542 -78.0436 -814.479
lowerback 5.44815 2.29828 10.3245
upperback -1.06541 3.79931 3.90412
thorax -3.78039 1.63575 -2.00177
lowerneck -19.0883 -5.9228 -7.00871
upperneck 13.0661 -7.4362 7.15295
head 7.68749 -3.24044 2.58121
rclavicle -1.19263e-014 2.8625e-014
rhumerus -7.76882 12.6523 -88.2443
rradius 79.3172
rwrist -1.22829
rhand -11.8316 -7.21768
rfingers 7.12502
rthumb 14.2193 -36.711
lclavicle -1.19263e-014 2.8625e-014
lhumerus -50.1697 -5.47007 82.9787
lradius 53.2999
lwrist -2.25849
lhand -9.07367 1.48498
lfingers 7.12502
lthumb 16.8755 30.7718
rfemur 3.5453 5.03875 38.7255
rtibia 20.8335
rfoot 714.335 -7.48625
rtoes 1.10651
lfemur -82.1814 7.10491 -11.2954
ltibia 78.7438
lfoot 365.535 195.012
ltoes -4.58694
397
root -23.0849 18.3964 3.08003 815.931 -77.9992 -815.58
lowerback 5.18929 2.34774 10.3692
upperback -1.11625 3.83498 3.86595
thorax -3.67818 1.65561 -2.0566
lowerneck -19.0703 -5.87909 -6.99844
upperneck 13.034 -7.38423 7.18283
head 7.67092 -3.21323 2.59686
rclavicle -7.67728e-015 -8.0309e-014
rhumerus -8.10375 12.8311 -88.3274
rradius 79.0737
rwrist -1.20206
rhand -11.7856 -7.27033
rfingers 7.12502
rthumb 14.2636 -36.7605
lclavicle -7.67728e-015 -8.0309e-014
lhumerus -50.0247 -5.47314 83.0815
lradius 53.3601
lwrist -2.21186
lhand -9.11681 1.51614
lfingers 7.12502
lthumb 16.834 30.8064
rfemur 3.66008 5.16352 38.7077
rtibia 20.9571
rfoot 714.149 -7.24732
rtoes 0.647965
lfemur -81.3877 7.50803 -11.2554
ltibia 81.4478
lfoot 367.606 214.644
ltoes -4.8044
398
root -23.2201 18.3794 3.08583 817.399 -77.9539 -816.76
lowerback 4.91956 2.40036 10.4039
upperback -1.16673 3.87243 3.83048
thorax -3.56991 1.6769 -2.10238
lowerneck -19.0553 -5.8336 -6.98538
upperneck 13.0074 -7.32874 7.20224
head 7.65586 -3.18504 2.60896
rclavicle -5.1552e-015 -2.65378e-014
rhumerus -8.45747 13.0202 -88.4105
rradius 78.8106
rwrist -1.16819
rhand -11.7421 -7.31723
rfingers 7.12502
rthumb 14.3055 -36.8044
lclavicle -5.1552e-015 -2.65378e-014
lhumerus -49.8739 -5.45889 83.2007
lradius 53.4309
lwrist -2.16601
lhand -9.18131 1.54614
lfingers 7.12502
lthumb 16.7719 30.8417
rfemur 3.79591 5.2813 38.672
rtibia 21.0582
rfoot 713.95 -6.99034
rtoes 0.201751
lfemur -80.4281 7.93315 -11.1996
ltibia 84.6054
lfoot 371.054 234.133
ltoes -4.99184
399
root -23.3578 18.3607 3.09222 818.942 -77.9122 -818.02
lowerback 4.64414 2.4555 10.4242
upperback -1.21217 3.911 3.79597
thorax -3.45382 1.6996 -2.13862
lowerneck -19.0668 -5.78774 -6.96411
upperneck 13.0012 -7.27135 7.20496
head 7.65083 -3.15625 2.61392
rclavicle -6.49311e-015 6.12257e-014
rhumerus -8.82685 13.2166 -88.4926
rradius 78.5297
rwrist -1.12957
rhand -11.7 -7.36852
rfingers 7.12502
rthumb 14.3461 -36.8528
lclavicle -6.49311e-015 6.12257e-014
lhumerus -49.7079 -5.4289 83.3373
lradius 53.5039
lwrist -2.12653
lhand -9.2789 1.57565
lfingers 7.12502
lthumb 16.678 30.8792
rfemur 3.96465 5.39962 38.6148
rtibia 21.1323
rfoot 713.738 -6.71751
rtoes -0.248055
lfemur -79.2988 8.3731 -11.1325
ltibia 87.355
lfoot 379.934 253.315
ltoes -5.2224
400
root -23.4981 18.3402 3.09919 820.552 -77.8741 -819.357
lowerback 4.36295 2.51295 10.4308
upperback -1.25755 3.95103 3.76122
thorax -3.33498 1.72351 -2.16712
lowerneck -19.078 -5.74137 -6.93928
upperneck 13.0077 -7.21291 7.19624
head 7.64925 -3.12772 2.61463
rclavicle 1.02832e-014 2.127e-014
rhumerus -9.22876 13.4136 -88.5796
rradius 78.2318
rwrist -1.0859
rhand -11.6674 -7.42637
rfingers 7.12502
rthumb 14.3775 -36.9085
lclavicle 1.02832e-014 2.127e-014
lhumerus -49.5342 -5.38815 83.4919
lradius 53.5748
lwrist -2.09533
lhand -9.40011 1.60552
lfingers 7.12502
lthumb 16.5613 30.9188
rfemur 4.17113 5.5263 38.5375
rtibia 21.1744
rfoot 713.513 -6.4372
rtoes -0.718315
lfemur -78.0085 8.82546 -11.056
ltibia 88.9443
lfoot 495.183 264.915
ltoes -5.59483
401
root -23.641 18.318 3.10661 822.247 -77.836 -820.786
lowerback 4.07674 2.5744 10.4243
upperback -1.30401 3.99512 3.72608
thorax -3.21473 1.74976 -2.18839
lowerneck -19.0835 -5.69399 -6.91455
upperneck 13.022 -7.1537 7.18594
head 7.64921 -3.09905 2.61502
rclavicle -2.8785e-015 1.94809e-014
rhumerus -9.66749 13.6163 -88.6683
rradius 77.9198
rwrist -1.04458
rhand -11.6423 -7.50776
rfingers 7.12502
rthumb 14.4017 -36.9881
lclavicle -2.8785e-015 1.94809e-014
lhumerus -49.3532 -5.33947 83.664
lradius 53.6428
lwrist -2.07502
lhand -9.56412 1.61336
lfingers 7.12502
lthumb 16.4034 30.9398
rfemur 4.41912 5.67455 38.4461
rtibia 21.1779
rfoot 713.274 -6.15909
rtoes -1.16944
lfemur -76.5673 9.29322 -10.9687
ltibia 88.9137
lfoot 538.952 247.409
ltoes -6.07761
